<html>
<head>
<meta charset="UTF-8">
<meta name="viewport" content="width=device-width, initial-scale=1.0"/>

<style>
.comment
{
    padding-left: 20px;
    margin-top: 4px;
    margin-right: 4px;
    margin-bottom: 4px;
    border: 2px #000 solid;
}
.submission
{
    border: 4px #00f solid;
    padding-left: 20px;
}
.hidden
{
    display: none;
}
</style>
</head>
<body><div class="submission" id="t3_6dlp7b">
    <p class="userinfo">
        <a href="https://www.reddit.com/u/V2atX">V2atX</a>
        <span class="score"> | 44 points</span>
        <span class="timestamp"> | May 27 2017 03:59:40</span>
    </p>
    <strong>[TV] The Spectacular Spider-Man S01 S02 [1080p] FLAC [x264] [15.8GB]</strong>
    <p><p><a href="http://www.imdb.com/title/tt0976192/">The Spectacular Spider-Man</a></p>
<p>Video: AVC H.264 @ 1498 - 4354 kb/s (2227 kb/s average) (CRF20, Animation Preset)<br>
Audio: FLAC 5.1 @ 1470 - 1755 kb/s (1590 kb/s average) (lossless from DTS-HD MA source)<br>
Subs: UTF-8, non HI</p>
<p>Link protected by captcha:  http://links.snahp.it/299Spidey</p>
<p>Complete MediaInfo of a relatively average sized episode:</p>
<pre><code>General
Unique ID                                : 237658555136541124208642971439947857007 (0xB2CB5F6F043796BEA57A27D34A903C6F)
Complete name                            : The Spectacular Spider-Man - S02E02 - Destructive Testing.mkv
Format                                   : Matroska
Format version                           : Version 4 / Version 2
File size                                : 632 MiB
Duration                                 : 22 min 37 s
Overall bit rate mode                    : Variable
Overall bit rate                         : 3 904 kb/s
Encoded date                             : UTC 2017-05-26 19:16:55
Writing application                      : mkvmerge v10.0.0 ('To Drown In You') 64bit
Writing library                          : libebml v1.3.4 + libmatroska v1.4.5

Video
ID                                       : 1
Format                                   : AVC
Format/Info                              : Advanced Video Codec
Format profile                           : High@L4.1
Format settings, CABAC                   : Yes
Format settings, ReFrames                : 4 frames
Codec ID                                 : V_MPEG4/ISO/AVC
Duration                                 : 22 min 37 s
Bit rate                                 : 2 234 kb/s
Width                                    : 1 920 pixels
Height                                   : 1 080 pixels
Display aspect ratio                     : 16:9
Frame rate mode                          : Constant
Frame rate                               : 23.976 FPS
Color space                              : YUV
Chroma subsampling                       : 4:2:0
Bit depth                                : 8 bits
Scan type                                : Progressive
Bits/(Pixel*Frame)                       : 0.045
Stream size                              : 361 MiB (57%)
Writing library                          : x264 core 142 r2479 dd79a61
Encoding settings                        : cabac=1 / ref=4 / deblock=1:1:1 / analyse=0x3:0x133 / me=umh / subme=10 / psy=1 / psy_rd=0.40:0.00 / mixed_ref=1 / me_range=24 / chroma_me=1 / trellis=2 / 8x8dct=1 / cqm=0 / deadzone=21,11 / fast_pskip=1 / chroma_qp_offset=-2 / threads=12 / lookahead_threads=3 / sliced_threads=0 / nr=0 / decimate=1 / interlaced=0 / bluray_compat=0 / constrained_intra=0 / bframes=10 / b_pyramid=2 / b_adapt=2 / b_bias=0 / direct=3 / weightb=1 / open_gop=0 / weightp=2 / keyint=240 / keyint_min=24 / scenecut=40 / intra_refresh=0 / rc_lookahead=60 / rc=crf / mbtree=1 / crf=20.0 / qcomp=0.60 / qpmin=0 / qpmax=69 / qpstep=4 / vbv_maxrate=62500 / vbv_bufsize=78125 / crf_max=0.0 / nal_hrd=none / filler=0 / ip_ratio=1.40 / aq=1:0.60
Default                                  : Yes
Forced                                   : No
Color range                              : Limited
Color primaries                          : BT.709
Transfer characteristics                 : BT.709
Matrix coefficients                      : BT.709

Audio
ID                                       : 2
Format                                   : FLAC
Format/Info                              : Free Lossless Audio Codec
Codec ID                                 : A_FLAC
Duration                                 : 22 min 37 s
Bit rate mode                            : Variable
Bit rate                                 : 1 669 kb/s
Channel(s)                               : 6 channels
Channel positions                        : Front: L C R, Side: L R, LFE
Sampling rate                            : 48.0 kHz
Frame rate                               : 11.719 FPS (4096 spf)
Bit depth                                : 16 bits
Delay relative to video                  : -102 ms
Stream size                              : 270 MiB (43%)
Writing library                          : libFLAC 1.2.1 (UTC 2007-09-17)
Language                                 : English
Default                                  : Yes
Forced                                   : No

Text
ID                                       : 3
Format                                   : UTF-8
Codec ID                                 : S_TEXT/UTF8
Codec ID/Info                            : UTF-8 Plain Text
Duration                                 : 21 min 42 s
Bit rate                                 : 59 b/s
Count of elements                        : 307
Stream size                              : 9.39 KiB (0%)
Language                                 : English
Default                                  : Yes
Forced                                   : No

Menu
00:00:00.000                             : :Chapter 1
00:03:38.964                             : :Chapter 2
00:09:34.987                             : :Chapter 3
00:16:29.693                             : :Chapter 4
00:22:06.321                             : :Chapter 5
</code></pre></p>
    <p class="toolbar">
        <a href="https://www.reddit.com/r/megalinks/comments/6dlp7b">permalink</a>
    </p>
</div>
<div class="comment" id="t1_di3zw5t">
    <p class="userinfo">
        <a
        class="toggle_hide_button"
        href="javascript:void(0)"
        onclick="toggle_collapse(this.parentElement.parentElement)">[-]
        </a>
        <a href="https://www.reddit.com/u/Aidache">Aidache</a>
        <span class="score"> | 5 points</span>
        <span class="timestamp"> | May 27 2017 13:43:25</span>
    </p>
    <div class="collapsible">
        <p>Highly recommend this series. My favorite Spider-Man show. Better than any of the movies IMO. Closest feeling you'll get to the original comic run. Too bad they ended it at season 2, they really need to bring this back!</p>
        <p class="toolbar">
            <a href="https://www.reddit.com/r/megalinks/comments/6dlp7b/_/di3zw5t">permalink</a>
        </p>
        <div class="comment" id="t1_di62ain">
    <p class="userinfo">
        <a
        class="toggle_hide_button"
        href="javascript:void(0)"
        onclick="toggle_collapse(this.parentElement.parentElement)">[-]
        </a>
        <a href="https://www.reddit.com/u/bringer1111">bringer1111</a>
        <span class="score"> | 3 points</span>
        <span class="timestamp"> | May 29 2017 00:50:25</span>
    </p>
    <div class="collapsible">
        <p>idk about that, spiderman 2 was really good. To each their own I suppose. Would still highly recommend this series.</p>
        <p class="toolbar">
            <a href="https://www.reddit.com/r/megalinks/comments/6dlp7b/_/di62ain">permalink</a>
        </p>
        
    </div>
</div>
    </div>
</div>

<div class="comment" id="t1_di3y4rr">
    <p class="userinfo">
        <a
        class="toggle_hide_button"
        href="javascript:void(0)"
        onclick="toggle_collapse(this.parentElement.parentElement)">[-]
        </a>
        <a href="https://www.reddit.com/u/saintspidey67re">saintspidey67re</a>
        <span class="score"> | 4 points</span>
        <span class="timestamp"> | May 27 2017 12:44:25</span>
    </p>
    <div class="collapsible">
        <p>Best incarnation of Spider-Man in any media! </p>
        <p class="toolbar">
            <a href="https://www.reddit.com/r/megalinks/comments/6dlp7b/_/di3y4rr">permalink</a>
        </p>
        
    </div>
</div>

<div class="comment" id="t1_di47fjq">
    <p class="userinfo">
        <a
        class="toggle_hide_button"
        href="javascript:void(0)"
        onclick="toggle_collapse(this.parentElement.parentElement)">[-]
        </a>
        <a href="https://www.reddit.com/u/tonystankisajerk">tonystankisajerk</a>
        <span class="score"> | 3 points</span>
        <span class="timestamp"> | May 27 2017 16:58:57</span>
    </p>
    <div class="collapsible">
        <p>Yes, thank you so much! I've been waiting for someone to upload this.</p>
        <p class="toolbar">
            <a href="https://www.reddit.com/r/megalinks/comments/6dlp7b/_/di47fjq">permalink</a>
        </p>
        
    </div>
</div>

<div class="comment" id="t1_di3smj7">
    <p class="userinfo">
        <a
        class="toggle_hide_button"
        href="javascript:void(0)"
        onclick="toggle_collapse(this.parentElement.parentElement)">[-]
        </a>
        <a href="https://www.reddit.com/u/street0721">street0721</a>
        <span class="score"> | 1 points</span>
        <span class="timestamp"> | May 27 2017 08:09:33</span>
    </p>
    <div class="collapsible">
        <p>do you have iron man animated series?</p>
        <p class="toolbar">
            <a href="https://www.reddit.com/r/megalinks/comments/6dlp7b/_/di3smj7">permalink</a>
        </p>
        <div class="comment" id="t1_di40roc">
    <p class="userinfo">
        <a
        class="toggle_hide_button"
        href="javascript:void(0)"
        onclick="toggle_collapse(this.parentElement.parentElement)">[-]
        </a>
        <a href="https://www.reddit.com/u/V2atX">V2atX</a>
        <span class="score"> | 2 points</span>
        <span class="timestamp"> | May 27 2017 14:09:54</span>
    </p>
    <div class="collapsible">
        <p>No, sorry. Try the Weekly Request Thread.</p>
        <p class="toolbar">
            <a href="https://www.reddit.com/r/megalinks/comments/6dlp7b/_/di40roc">permalink</a>
        </p>
        
    </div>
</div>
    </div>
</div>
</body>

<script>
function toggle_collapse(comment_div)
{
    var button = comment_div.getElementsByClassName("toggle_hide_button")[0];
    var collapsible = comment_div.getElementsByClassName("collapsible")[0];
    if (collapsible.classList.contains("hidden"))
    {
        collapsible.classList.remove("hidden");
        button.innerText = "[-]";
    }
    else
    {
        collapsible.classList.add("hidden");
        button.innerText = "[+]";
    }
}
</script>
</html>
